<svg width="300" height="240" viewBox="0 0 300 240" fill="none" xmlns="http://www.w3.org/2000/svg">
<path d="M290.838 175.55C292.096 179.347 290.995 183.503 288.029 186.154C264.821 206.869 237.389 217.765 210.462 217.765C209.462 217.765 208.474 217.732 207.474 217.698C198.431 220.551 189.22 222 179.907 222C175.627 222 171.325 221.697 167 221.079C128.739 215.642 93.8922 185.828 70.6726 138.94C63.8202 149.23 58.4618 161.16 53.6202 176.752C52.8113 179.358 50.7781 181.391 48.1831 182.2C45.577 183.02 42.7237 182.492 40.5668 180.807C29.5805 172.202 14.7635 155.363 8.97824 142.085C7.42802 138.513 7.73132 134.379 9.80952 131.031C21.8181 111.642 36.3767 93.7361 50.8455 80.548C47.9023 68.0114 45.8241 55.7669 44.1391 40.905C43.7122 37.153 45.5208 33.4571 48.7561 31.5025C59.1133 25.2342 68.7517 20.9767 81.0074 17.2697C82.816 16.7192 84.7482 17.0225 86.3209 18.0785C87.8935 19.1457 88.8933 20.8419 89.0506 22.7404C89.309 25.7285 89.5898 28.5032 89.9156 31.1206C101.621 28.0089 115.887 26.4474 126.492 26.7395C128.57 26.7957 130.491 27.6607 131.895 29.1772C133.311 30.6937 134.03 32.6708 133.94 34.7378C131.659 84.2888 139.961 117.091 158.002 130.593C173.875 129.369 192.556 118.225 213.697 97.3084C215.068 95.9604 216.944 95.2302 218.876 95.3088C220.786 95.3987 222.594 96.2749 223.83 97.7353C228.537 103.307 232.716 108.508 236.558 113.575C241.871 109.295 246.567 104.857 250.319 100.622C251.217 99.6113 252.487 99.0945 253.857 99.2069C255.194 99.3192 256.418 100.049 257.137 101.184C272.92 126.1 281.447 147.32 290.849 175.539L290.838 175.55ZM260.024 166.069C246.084 141.355 236.198 125.639 218.797 104.835C191.916 130.953 168 142.299 147.678 138.558C130.334 135.368 115.921 121.393 104.834 97.0276C103.654 94.4326 104.384 91.3883 106.62 89.6135C113.36 84.2438 118.729 80.5817 124.02 77.7396C124.683 77.3802 125.043 76.6612 124.908 75.931C123.537 68.2024 122.751 59.0583 122.335 52.7451C122.302 52.2283 122.021 51.9026 121.785 51.7341C121.594 51.588 121.19 51.3521 120.628 51.4645C111.416 53.318 101.216 57.0475 94.6449 60.9792C93.3418 61.7544 91.7691 61.9116 90.3425 61.3949C88.9158 60.8781 87.8037 59.7548 87.2982 58.3281C84.018 49.0268 82.0858 39.6131 80.7827 26.4362C70.6951 29.6939 62.6856 33.3673 53.7999 38.7594C53.564 38.9054 53.418 39.1862 53.4517 39.4671C55.1142 54.1493 57.1699 66.2028 60.0906 78.5484C60.7759 81.4242 59.8323 84.4573 57.6417 86.4456C43.656 99.117 29.5131 116.484 17.8302 135.345C17.3135 136.188 17.2236 137.21 17.6056 138.075C22.4584 149.23 35.86 164.721 45.723 172.696C51.6206 153.948 58.3495 140.142 67.4711 128.032C68.4596 126.718 70.0435 125.943 71.6836 125.943C71.8634 125.943 72.0543 125.943 72.2341 125.976C74.0651 126.167 75.694 127.336 76.4578 129.009C98.3182 176.381 131.918 206.543 168.64 211.767C200.61 216.305 232.075 201.926 259.62 170.169C260.597 169.046 260.755 167.405 260.013 166.091L260.024 166.069Z" fill="#333333"/>
</svg>
